<svg width="339.79998779296875" height="96.25111839024218" viewBox="0 0 406 115.00281186074527"
  class="looka-1j8o68f">
  <defs id="SvgjsDefs2396"></defs>
  <g id="SvgjsG2397" featurekey="symbolFeature-0"
    transform="matrix(1.223432778553472,0,0,1.223432778553472,-10.997437638447316,-1.2235552879774414)"
    fill="#000000">
    <g xmlns="http://www.w3.org/2000/svg">
      <rect x="77.9761" y="42.6892"
        transform="matrix(-0.9908 -0.1353 0.1353 -0.9908 149.4001 125.2503)" width="1.9582"
        height="29.7208"></rect>
      <rect x="80.8019" y="34.665" transform="matrix(0.9908 0.1353 -0.1353 0.9908 5.7383 -10.7234)"
        width="1.9582" height="4.4009"></rect>
      <path
        d="M23.9671,86.5185h-2.8323v-2.0597c0-2.1692-1.605-3.9344-3.5782-3.9344s-3.5782,1.7652-3.5782,3.9344v6.607   c0,2.1692,1.605,3.9344,3.5782,3.9344s3.5782-1.7652,3.5782-3.9344v-2.589h3.1024c0.3459,2.4286,2.4472,4.2571,4.9025,4.2571   h37.7199c2.4558,0,4.5572-1.8285,4.9025-4.2571h3.0274v2.589c0,2.1692,1.605,3.9344,3.5782,3.9344   c1.9732,0,3.5782-1.7652,3.5782-3.9344v-6.607c0-2.1692-1.605-3.9344-3.5782-3.9344c-1.9732,0-3.5782,1.7652-3.5782,3.9344v2.0597   h-2.7573l8.7074-63.7343h6.2713l-4.2767-9.4288c-0.8922-1.9674-2.8648-3.2387-5.0254-3.2387H59.4591V4.9875   c0-2.1988-1.7886-3.9874-3.9874-3.9874H40.5284c-2.1988,0-3.9874,1.7886-3.9874,3.9874v5.1292H18.2906   c-2.1606,0-4.1333,1.2713-5.0249,3.2387L8.989,22.7842h6.2708L23.9671,86.5185z M19.1765,91.0658   c0,1.0896-0.7267,1.976-1.6198,1.976c-0.8931,0-1.6198-0.8864-1.6198-1.976v-6.607c0-1.0896,0.7267-1.976,1.6198-1.976   c0.8931,0,1.6198,0.8864,1.6198,1.976V91.0658z M76.748,84.4588c0-1.0896,0.7267-1.976,1.6198-1.976   c0.8931,0,1.6198,0.8864,1.6198,1.976v6.607c0,1.0896-0.7267,1.976-1.6198,1.976c-0.8931,0-1.6198-0.8864-1.6198-1.976V84.4588z    M69.8283,88.1852c-0.2018,1.4769-1.4778,2.5904-2.9686,2.5904H29.1398c-1.4903,0-2.7668-1.1135-2.9686-2.5904l-8.9348-65.401   h61.5266L69.8283,88.1852z M38.4993,4.9875c0-1.1188,0.9103-2.0291,2.0291-2.0291h14.9433c1.1188,0,2.0291,0.9103,2.0291,2.0291   v0.5709h-9.501v1.9583h9.501v2.6H38.4993V4.9875z M12.0278,20.8259l1.5404-3.3965h22.6366V15.471H14.4564   c0.3294-0.4583,0.8471-3.396,3.8342-3.396h18.2504h22.9181H77.709c1.3937,0,2.6664,0.82,3.2421,2.0893l3.0212,6.6615h-2.9649   l0.0001-0.001H14.9921l0.0001,0.001H12.0278z"></path>
      <rect x="20.649" y="31.6225"
        transform="matrix(-0.9907 0.1362 -0.1362 -0.9907 47.5722 63.0667)" width="1.9584"
        height="3.0771"></rect>
      <rect x="22.8287" y="38.4601"
        transform="matrix(-0.9907 0.1362 -0.1362 -0.9907 54.0725 94.352)" width="1.9584"
        height="21.1321"></rect>
      <polygon
        points="56.2988,88.8172 66.8602,88.8172 67.2843,88.7665 67.8389,88.2851 69.529,75.9107 67.5888,75.6458 66.057,86.8589    56.2988,86.8589  "></polygon>
      <rect x="68.3407" y="68.1227" transform="matrix(0.9908 0.1353 -0.1353 0.9908 10.1338 -8.7313)"
        width="1.9582" height="4.1697"></rect>
      <rect x="71.7116" y="6.1996" width="5.875" height="1.9583"></rect>
      <path
        d="M84.5182,12.546l1.7833-0.8099c-0.9103-2.0042-2.5072-3.637-4.4961-4.597l-0.851,1.7633   C82.5312,9.6639,83.7972,10.9577,84.5182,12.546z"></path>
      <path
        d="M54.9921,38.4853l-1.1494-1.5854c-0.7564,0.5484-1.627,1.157-2.6239,1.824l1.0882,1.6275   C53.3278,39.6691,54.2185,39.0461,54.9921,38.4853z"></path>
      <path
        d="M50.179,41.7383l-1.0509-1.6523c-2.7243,1.7327-5.8348,3.5562-9.2457,5.4203l0.939,1.7183   C44.27,45.3399,47.4184,43.4944,50.179,41.7383z"></path>
      <path
        d="M47.3495,77.2781v1.9583c2.8079,0,5.4155-0.5527,7.7501-1.6423l-0.8281-1.7747   C52.198,76.7875,49.8692,77.2781,47.3495,77.2781z"></path>
      <path
        d="M58.303,73.032c-0.4925,0.4786-1.0217,0.927-1.5739,1.3315l1.158,1.5797c0.6249-0.4585,1.2244-0.9658,1.7814-1.5075   L58.303,73.032z"></path>
      <path
        d="M41.1528,71.8439c-0.0602-0.0684-5.9964-6.902-4.8509-13.4057c1.4723-8.3569,12.2338-8.6848,24.8071-19.7865   c1.9642,17.1383-0.2,37.5748-17.2067,34.3688l-0.3634,1.9239c19.1652,3.6207,22.2622-19.666,19.2563-38.5045l-0.3356-2.0884   l-1.3774,1.6088c-0.0387,0.0454-4.073,4.6491-19.3223,12.983c-4.2427,2.3183-6.7284,5.4017-7.3882,9.1634   c-1.3043,7.4365,5.0417,14.7257,5.3127,15.0327L41.1528,71.8439z"></path>
      <path
        d="M49.6038,64.6407l-1.7747-0.8271C45.4806,68.85,40.8645,75.2045,32.2078,76.876l0.371,1.923   C42.0464,76.9706,47.0627,70.0907,49.6038,64.6407z"></path>
      <path
        d="M48.9937,60.9569l1.8474,0.6502c0.7669-2.1773,1.0389-3.6661,1.0504-3.7283l-1.9273-0.3476   C49.9614,57.5451,49.7042,58.9402,48.9937,60.9569z"></path>
      <rect x="40.144" y="15.471" width="3.9391" height="1.9583"></rect>
    </g>
  </g>
</svg>